<svg width="67" height="67" viewBox="0 0 67 67" fill="none" xmlns="http://www.w3.org/2000/svg">
<rect width="67" height="67" rx="12" fill="black" fill-opacity="0.06"/>
<rect x="0.5" y="0.5" width="66" height="66" rx="11.5" stroke="#3D3D3D" stroke-opacity="0.49"/>
<path d="M44.5653 32.2858C44.5653 31.6894 44.0814 31.2055 43.4848 31.2055C42.8884 31.2055 42.4047 31.6894 42.4047 32.2858C42.4047 32.4415 42.4378 32.5907 42.4974 32.7233C42.5668 33.1274 42.6598 33.8433 42.6598 34.9202C42.6598 41.5942 37.7654 46.4888 31.0881 46.4888C24.4106 46.4888 19.5162 41.5942 19.5162 34.9202C19.5162 28.2461 24.4106 23.3517 31.0881 23.3517C32.1551 23.3517 32.3008 23.302 33.232 23.4974L33.2353 23.4743C33.265 23.4778 33.295 23.4843 33.3249 23.4843C33.8947 23.4843 34.3586 23.0203 34.3586 22.4503C34.3586 21.96 34.0173 21.5524 33.56 21.4463L33.57 21.3833C32.3968 21.1746 32.3439 21.188 31.088 21.188C23.5028 21.188 17.3523 27.335 17.3523 34.9169C17.3523 42.5021 23.5026 48.6493 31.088 48.6493C38.6733 48.6493 44.8236 42.5021 44.8236 34.9169C44.8236 33.7271 44.7276 33.1671 44.5619 32.3188C44.5618 32.309 44.5653 32.2957 44.5653 32.2858ZM28.0624 44.5634C28.0726 44.57 28.0857 44.57 28.0957 44.5767C28.132 44.59 28.2116 44.6 28.2116 44.6C28.2647 44.6097 28.311 44.633 28.3673 44.633C28.785 44.633 29.0533 44.2817 29.1229 43.8641C29.1926 43.4303 28.712 43.1649 28.712 43.1649C27.1181 42.6714 25.6998 41.7832 24.5499 40.6166C24.5499 40.6166 24.1356 40.2256 23.8407 40.2256C23.4231 40.2256 23.0851 40.5703 23.0851 40.9945C23.0851 41.243 23.2077 41.4519 23.3867 41.5943L23.38 41.5976C24.6692 42.9397 26.2698 43.9703 28.0624 44.5634ZM30.9389 30.5029C30.9786 30.5062 31.0151 30.5162 31.0582 30.5162C31.6548 30.5162 32.1385 30.0323 32.1385 29.4359C32.1385 28.8495 31.6712 28.3754 31.0881 28.3589V28.329C27.4461 28.329 24.4934 31.2815 24.4934 34.9202C24.4934 38.562 27.4462 41.5112 31.0881 41.5112C34.71 41.5112 37.6461 38.592 37.6792 34.9799C37.6825 34.9433 37.6891 34.9102 37.6891 34.8705C37.6891 34.2739 37.2052 33.79 36.6089 33.79C36.0123 33.79 35.5286 34.2739 35.5286 34.8705C35.5286 34.887 35.5319 34.9038 35.5319 34.9202H35.5153C35.5153 37.6507 33.8187 39.3473 31.0881 39.3473C28.3574 39.3473 26.6608 37.6507 26.6608 34.9202C26.6608 32.2394 28.301 30.5659 30.9389 30.5029ZM48.6478 23.9316L42.5935 23.4147L42.0765 17.3506L39.9126 19.5342V19.5409L35.5285 23.4147H35.5186V28.8163L29.4707 34.3403L30.6306 36.0137L37.1921 29.9727H42.5935V29.966L42.6002 29.9727L46.9909 25.5852L46.9843 25.5787H46.9909L48.6478 23.9316ZM41.4502 28.3257H37.6825V24.5613L40.4296 21.8143V25.5819H44.1974L41.4502 28.3257ZM22.6642 38.1478C22.5284 38.0054 22.3364 37.9124 22.1241 37.9124C21.7067 37.9124 21.3688 38.2571 21.3688 38.6813C21.3688 38.9133 21.7462 39.4469 21.8061 39.5429C21.8128 39.5627 21.8292 39.576 21.8392 39.5959C21.9088 39.7086 22.1042 39.8842 22.1042 39.8842C22.2237 39.9603 22.3528 40.0167 22.5052 40.0167C22.9228 40.0167 23.2608 39.672 23.2608 39.248C23.2608 39.1652 23.2375 39.0856 23.2144 39.0093L22.6642 38.1478Z" fill="#FF9C07"/>
</svg>
