<svg width="67" height="67" viewBox="0 0 67 67" fill="none" xmlns="http://www.w3.org/2000/svg">
<rect width="67" height="67" rx="12" fill="black" fill-opacity="0.06"/>
<rect x="0.5" y="0.5" width="66" height="66" rx="11.5" stroke="#3D3D3D" stroke-opacity="0.49"/>
<path d="M28.75 32.25V25.25M35.75 20V23.5C35.75 23.9641 35.5656 24.4092 35.2374 24.7374C34.9092 25.0656 34.4641 25.25 34 25.25H23.5C23.0359 25.25 22.5908 25.0656 22.2626 24.7374C21.9344 24.4092 21.75 23.9641 21.75 23.5V20C21.75 19.5359 21.9344 19.0908 22.2626 18.7626C22.5908 18.4344 23.0359 18.25 23.5 18.25H34C34.4641 18.25 34.9092 18.4344 35.2374 18.7626C35.5656 19.0908 35.75 19.5359 35.75 20Z" stroke="#0A58CA" stroke-width="2" stroke-linecap="round" stroke-linejoin="round"/>
<path d="M18.25 42.7499V47.9999C18.25 48.4641 18.4344 48.9092 18.7626 49.2374C19.0908 49.5656 19.5359 49.7499 20 49.7499H48C48.4641 49.7499 48.9092 49.5656 49.2374 49.2374C49.5656 48.9092 49.75 48.4641 49.75 47.9999V42.7499M18.25 42.7499L21.26 33.4399C21.3818 33.0777 21.6187 32.7653 21.9347 32.5504C22.2507 32.3356 22.6284 32.23 23.01 32.2499H44.99C45.3569 32.249 45.7148 32.3634 46.0131 32.5769C46.3114 32.7905 46.5351 33.0924 46.6525 33.4399L49.75 42.7499M18.25 42.7499H49.75" stroke="#0A58CA" stroke-width="2" stroke-linecap="round" stroke-linejoin="round"/>
</svg>
