<svg width="67" height="67" viewBox="0 0 67 67" fill="none" xmlns="http://www.w3.org/2000/svg">
<rect width="67" height="67" rx="12" fill="black" fill-opacity="0.06"/>
<rect x="0.5" y="0.5" width="66" height="66" rx="11.5" stroke="#3D3D3D" stroke-opacity="0.49"/>
<path d="M41.1111 46.6256V43.6005C41.1111 41.9959 40.5024 40.457 39.4188 39.3224C38.3353 38.1877 36.8657 37.5503 35.3333 37.5503H23.7778C22.2454 37.5503 20.7758 38.1877 19.6923 39.3224C18.6087 40.457 18 41.9959 18 43.6005V46.6256" stroke="#198754" stroke-width="1.5" stroke-linecap="round" stroke-linejoin="round"/>
<path d="M29.5551 31.4999C32.7461 31.4999 35.3329 28.7911 35.3329 25.4496C35.3329 22.1082 32.7461 19.3994 29.5551 19.3994C26.3641 19.3994 23.7773 22.1082 23.7773 25.4496C23.7773 28.7911 26.3641 31.4999 29.5551 31.4999Z" stroke="#198754" stroke-width="1.5" stroke-linecap="round" stroke-linejoin="round"/>
<path d="M49.7774 46.6248V43.5997C49.7765 42.2591 49.3504 40.9569 48.5661 39.8974C47.7817 38.8379 46.6836 38.0812 45.4441 37.7461" stroke="#198754" stroke-width="1.5" stroke-linecap="round" stroke-linejoin="round"/>
<path d="M39.6667 19.5952C40.9096 19.9284 42.0111 20.6853 42.7978 21.7465C43.5844 22.8078 44.0114 24.113 44.0114 25.4564C44.0114 26.7998 43.5844 28.105 42.7978 29.1662C42.0111 30.2274 40.9096 30.9843 39.6667 31.3175" stroke="#198754" stroke-width="1.5" stroke-linecap="round" stroke-linejoin="round"/>
</svg>
