<svg width="67" height="67" viewBox="0 0 67 67" fill="none" xmlns="http://www.w3.org/2000/svg">
<rect width="67" height="67" rx="12" fill="black" fill-opacity="0.06"/>
<rect x="0.5" y="0.5" width="66" height="66" rx="11.5" stroke="#3D3D3D" stroke-opacity="0.49"/>
<path d="M44 30.8611C44.0042 32.5476 43.6273 34.2113 42.9 35.7167C42.0376 37.5206 40.7119 39.0378 39.0713 40.0985C37.4307 41.1592 35.5401 41.7214 33.6111 41.7222C31.9979 41.7266 30.4066 41.3326 28.9667 40.5722L22 43L24.3222 35.7167C23.5949 34.2113 23.218 32.5476 23.2222 30.8611C23.223 28.8445 23.7607 26.8679 24.7753 25.1527C25.7899 23.4376 27.2412 22.0516 28.9667 21.15C30.4066 20.3897 31.9979 19.9956 33.6111 20H34.2222C36.7697 20.147 39.1759 21.2711 40.98 23.1572C42.7841 25.0434 43.8594 27.5589 44 30.2222V30.8611Z" stroke="white" stroke-width="1.5" stroke-linecap="round" stroke-linejoin="round"/>
</svg>
