<svg width="67" height="67" viewBox="0 0 67 67" fill="none" xmlns="http://www.w3.org/2000/svg">
<rect width="67" height="67" rx="12" fill="black" fill-opacity="0.06"/>
<rect x="0.5" y="0.5" width="66" height="66" rx="11.5" stroke="#3D3D3D" stroke-opacity="0.49"/>
<path d="M42.1375 48.5833H27.9C26.8375 48.5833 25.8458 48.2291 25.0667 47.4499L19.3292 41.5708C17.7708 40.0124 17.7708 37.4624 19.3292 35.9749C20.0375 35.1958 21.0292 34.7708 22.0917 34.7708C23.1542 34.7708 24.1458 35.1958 24.8542 35.9749L24.9958 36.1166V24.2166C24.9958 22.3749 26.4833 20.9583 28.2542 20.9583C30.025 20.9583 31.5833 22.3749 31.5833 24.2166V29.1041C32.15 28.7499 32.7875 28.5374 33.4958 28.5374C34.5583 28.5374 35.4792 29.0333 36.1166 29.7416C36.7542 28.9624 37.675 28.5374 38.7375 28.5374C40.5083 28.5374 41.9958 29.9541 42.0667 31.6541C42.6333 31.2999 43.2708 31.0874 43.9792 31.0874C45.8208 31.0874 47.3083 32.5041 47.3083 34.3458V43.4833C47.1667 46.2458 44.9 48.5833 42.1375 48.5833ZM27.9 47.1666H42.0667C44.05 47.1666 45.6791 45.4666 45.6791 43.4833V34.2749C45.6791 33.2833 44.8292 32.4333 43.7667 32.4333C42.7042 32.4333 41.8542 33.2124 41.8542 34.2749H40.4375V31.7249C40.4375 30.7333 39.5875 29.8833 38.525 29.8833C37.4625 29.8833 36.6125 30.6624 36.6125 31.7249H35.1958C35.1958 30.7333 34.3458 29.8833 33.2833 29.8833C32.2208 29.8833 31.5833 30.7333 31.5833 31.7958H30.1666V24.2166C30.1666 23.1541 29.3167 22.3749 28.2542 22.3749C27.1917 22.3749 26.3417 23.1541 26.3417 24.2166V39.5166L23.7917 36.8958C22.8708 35.9041 21.1708 35.9041 20.25 36.8958C19.2583 37.8874 19.2583 39.5166 20.25 40.5083L25.9875 46.3874C26.5541 46.8833 27.1916 47.1666 27.9 47.1666Z" fill="#198754"/>
<path d="M34.4167 25.2084C33.9917 25.2084 33.7084 24.9251 33.7084 24.5001C33.7084 21.3834 31.3001 18.8334 28.3959 18.8334C25.4917 18.8334 23.0834 21.3834 23.0834 24.5001C23.0834 24.9251 22.8001 25.2084 22.3751 25.2084C21.9501 25.2084 21.6667 24.9251 21.6667 24.5001C21.6667 20.6042 24.7126 17.4167 28.3959 17.4167C32.0792 17.4167 35.1251 20.6042 35.1251 24.5001C35.1251 24.9251 34.8417 25.2084 34.4167 25.2084ZM36.0459 37.2501C35.6209 37.2501 35.3376 36.9667 35.3376 36.5417V30.8751C35.3376 30.4501 35.6209 30.1667 36.0459 30.1667C36.4709 30.1667 36.7542 30.4501 36.7542 30.8751V36.5417C36.7542 36.9667 36.4709 37.2501 36.0459 37.2501ZM30.8751 37.2501C30.4501 37.2501 30.1667 36.9667 30.1667 36.5417V30.8751C30.1667 30.4501 30.4501 30.1667 30.8751 30.1667C31.3001 30.1667 31.5834 30.4501 31.5834 30.8751V36.5417C31.5834 36.9667 31.3001 37.2501 30.8751 37.2501ZM41.2876 37.2501C40.8626 37.2501 40.5792 36.9667 40.5792 36.5417V33.0001C40.5792 32.5751 40.8626 32.2917 41.2876 32.2917C41.7126 32.2917 41.9959 32.5751 41.9959 33.0001V36.5417C41.9959 36.9667 41.6417 37.2501 41.2876 37.2501Z" fill="#198754"/>
</svg>
