<svg width="67" height="67" viewBox="0 0 67 67" fill="none" xmlns="http://www.w3.org/2000/svg">
<rect width="67" height="67" rx="12" fill="black" fill-opacity="0.06"/>
<rect x="0.5" y="0.5" width="66" height="66" rx="11.5" stroke="#3D3D3D" stroke-opacity="0.49"/>
<path d="M48.0265 31.2466C49.0574 40.4484 41.8506 48.2728 32.8521 48.2728C25.1299 48.2728 18.7439 42.5074 17.7369 35.0581C17.6586 34.4777 18.0939 33.9547 18.679 33.9547C19.1659 33.9547 19.5591 34.325 19.624 34.808C20.5118 41.3237 26.0987 46.3637 32.8531 46.3637C40.7281 46.3637 47.0338 39.5168 46.1299 31.4633C45.4464 25.3828 40.541 20.4497 34.4672 19.7319C29.7289 19.1726 25.4181 21.1208 22.6499 24.4092H27.1249C27.378 24.4092 27.6208 24.5098 27.7998 24.6888C27.9788 24.8678 28.0794 25.1106 28.0794 25.3637C28.0794 25.6169 27.9788 25.8597 27.7998 26.0387C27.6208 26.2177 27.378 26.3183 27.1249 26.3183H21.3976C21.3661 26.3183 21.3394 26.304 21.3079 26.2992C21.3043 26.3057 21.3005 26.3121 21.2964 26.3183H20.7714C20.0269 26.3183 19.5544 25.4926 19.9534 24.8626C22.9439 20.1328 28.4469 17.1442 34.5827 17.8228C41.5795 18.5979 47.2419 24.2469 48.0265 31.2457V31.2466ZM33.0001 28.2274C33.2532 28.2274 33.496 28.3279 33.675 28.507C33.8541 28.686 33.9546 28.9288 33.9546 29.1819V32.4274L38.2682 35.0486C38.3754 35.1135 38.4687 35.1989 38.5428 35.3C38.6169 35.4011 38.6703 35.5158 38.7001 35.6375C38.7298 35.7592 38.7351 35.8857 38.7159 36.0095C38.6967 36.1333 38.6532 36.2521 38.588 36.3592C38.5232 36.4665 38.4379 36.56 38.3368 36.6343C38.2358 36.7085 38.121 36.762 37.9992 36.7918C37.8774 36.8215 37.7509 36.8268 37.627 36.8074C37.5032 36.7881 37.3843 36.7444 37.2774 36.6789L32.6899 33.8926C32.4965 33.7988 32.3336 33.6524 32.2196 33.4703C32.1057 33.2881 32.0453 33.0775 32.0455 32.8627V29.1819C32.0455 28.9288 32.1461 28.686 32.3251 28.507C32.5041 28.3279 32.7469 28.2274 33.0001 28.2274Z" fill="#21A3DD"/>
</svg>
