<svg width="67" height="67" viewBox="0 0 67 67" fill="none" xmlns="http://www.w3.org/2000/svg">
<rect width="67" height="67" rx="12" fill="black" fill-opacity="0.06"/>
<rect x="0.5" y="0.5" width="66" height="66" rx="11.5" stroke="#3D3D3D" stroke-opacity="0.49"/>
<path d="M38.3539 39.2153C38.6616 38.9076 38.6616 38.4153 38.3539 38.1076L37.2462 36.9999C36.9385 36.6922 36.4462 36.6922 36.1385 36.9999L33.4308 39.7076C33.2462 39.8922 32.8769 39.8922 32.6923 39.7076L29.9846 36.9999C29.6769 36.6922 29.1846 36.6922 28.8769 36.9999L27.7692 38.1076C27.4616 38.4153 27.4616 38.9076 27.7692 39.2153L30.4769 41.923C30.6616 42.1076 30.6616 42.4769 30.4769 42.6615L27.7692 45.3692C27.4616 45.6769 27.4616 46.1692 27.7692 46.4769L28.8769 47.5845C29.1846 47.8922 29.6769 47.8922 29.9846 47.5845L32.6923 44.8769C32.8769 44.6922 33.2462 44.6922 33.4308 44.8769L36.1385 47.5845C36.4462 47.8922 36.9385 47.8922 37.2462 47.5845L38.3539 46.4769C38.6616 46.1692 38.6616 45.6769 38.3539 45.3692L35.6462 42.6615C35.4616 42.4769 35.4616 42.1076 35.6462 41.923L38.3539 39.2153ZM46.3539 24.1384C42.9692 20.3845 38.1693 18.2922 33.0616 18.2922C27.9539 18.2922 23.1539 20.3845 19.7693 24.1384C19.5231 24.3845 19.5846 24.8153 19.8308 24.9999L21.6769 26.5999C21.9231 26.8461 22.2923 26.7845 22.5385 26.5384C25.2462 23.6461 29.0616 21.9845 33.0616 21.9845C37.0616 21.9845 40.8769 23.6461 43.5846 26.5384C43.8308 26.7845 44.2 26.7845 44.4462 26.5999L46.2923 24.9999C46.5385 24.7538 46.6 24.3845 46.3539 24.1384ZM33.0616 26.9076C30.4769 26.9076 28.0154 28.0153 26.2923 29.9845C26.0462 30.2307 26.1077 30.6615 26.3539 30.9076L28.3231 32.3845C28.5693 32.5692 28.9385 32.5692 29.1231 32.323C30.1693 31.2153 31.5846 30.5999 33.0616 30.5999C34.5385 30.5999 35.9539 31.2153 36.9385 32.2615C37.1231 32.5076 37.4923 32.5076 37.7385 32.323L39.7077 30.8461C40.0154 30.5999 40.0154 30.2307 39.7692 29.923C38.1077 28.0153 35.6462 26.9076 33.0616 26.9076Z" fill="#0A58CA"/>
</svg>
