<svg width="67" height="67" viewBox="0 0 67 67" fill="none" xmlns="http://www.w3.org/2000/svg">
<path d="M33.5833 51.25C31.4166 51.25 24.5833 46.75 22.9166 44.25C18.3333 37.5 17.4999 26.4167 17.3333 23.25C17.3333 22.75 17.4999 22.25 17.8333 21.9167C18.1666 21.5 18.6666 21.25 19.1666 21.25C23.1666 21.25 27.1666 19.9167 30.4166 17.5C32.2499 16.0833 34.7499 16.0833 36.6666 17.5L36.7499 17.5833C39.9999 20 43.8333 21.25 47.9166 21.25C48.9166 21.25 49.8333 22.0833 49.8333 23.0833C49.9166 26.4167 49.6666 37.75 44.1666 44.25C41.5833 47.4167 35.6666 51.25 33.5833 51.25ZM33.5833 18.1667C32.8333 18.1667 32.0833 18.4167 31.4999 18.9167C27.9166 21.5 23.5833 22.9167 19.1666 22.9167C19.0833 22.9167 19.0833 22.9167 18.9999 23V23.1667C19.1666 26.25 19.9999 36.9167 24.2499 43.3333C25.9166 45.8333 32.3333 49.6667 33.5833 49.6667C34.8333 49.6667 40.2499 46.5 42.9166 43.3333C47.9999 37.1667 48.2499 26.3333 48.1666 23.1667C48.1666 23.0833 48.0833 22.9167 47.9166 22.9167C43.4999 22.9167 39.3333 21.5 35.7499 18.9167L35.6666 18.8333C34.9999 18.4167 34.3333 18.1667 33.5833 18.1667Z" fill="#871975"/>
<path d="M32.9167 40.1666C32.25 40.1666 31.6667 39.9166 31.1667 39.4999L26.8334 35.7499C26.5 35.4166 26.4167 34.9166 26.75 34.5833C27.0834 34.2499 27.5834 34.1666 27.9167 34.4999L32.25 38.2499C32.5 38.4166 32.75 38.4999 33 38.4999C33.25 38.4999 33.5 38.3333 33.6667 38.0833L42.5 27.0833C42.75 26.7499 43.3334 26.6666 43.6667 26.9166C44 27.1666 44.0834 27.7499 43.8334 28.0833L35 39.1666C34.5 39.7499 33.9167 40.0833 33.1667 40.1666H32.9167Z" fill="#871975"/>
<rect width="67" height="67" rx="12" fill="black" fill-opacity="0.06"/>
<rect x="0.5" y="0.5" width="66" height="66" rx="11.5" stroke="#3D3D3D" stroke-opacity="0.49"/>
</svg>
