<svg width="67" height="67" viewBox="0 0 67 67" fill="none" xmlns="http://www.w3.org/2000/svg">
<rect width="67" height="67" rx="12" fill="black" fill-opacity="0.06"/>
<rect x="0.5" y="0.5" width="66" height="66" rx="11.5" stroke="#3D3D3D" stroke-opacity="0.49"/>
<path d="M37.5 24H42C42.3978 24 42.7794 24.158 43.0607 24.4393C43.342 24.7206 43.5 25.1022 43.5 25.5V45C43.5 45.3978 43.342 45.7794 43.0607 46.0607C42.7794 46.342 42.3978 46.5 42 46.5H24C23.6022 46.5 23.2206 46.342 22.9393 46.0607C22.658 45.7794 22.5 45.3978 22.5 45V25.5C22.5 25.1022 22.658 24.7206 22.9393 24.4393C23.2206 24.158 23.6022 24 24 24H28.5" stroke="#871919" stroke-width="2" stroke-linecap="round" stroke-linejoin="round"/>
<path d="M28.5 40.5H37.5M37.5 34.5H28.5M36 22.5C36 21.7044 35.6839 20.9413 35.1213 20.3787C34.5587 19.8161 33.7956 19.5 33 19.5C32.2044 19.5 31.4413 19.8161 30.8787 20.3787C30.3161 20.9413 30 21.7044 30 22.5C29.6022 22.5 29.2206 22.658 28.9393 22.9393C28.658 23.2206 28.5 23.6022 28.5 24V27H37.5V24C37.5 23.6022 37.342 23.2206 37.0607 22.9393C36.7794 22.658 36.3978 22.5 36 22.5Z" stroke="#871919" stroke-width="2" stroke-linecap="round" stroke-linejoin="round"/>
</svg>
