<svg width="67" height="67" viewBox="0 0 67 67" fill="none" xmlns="http://www.w3.org/2000/svg">
<rect width="67" height="67" rx="12" fill="black" fill-opacity="0.06"/>
<rect x="0.5" y="0.5" width="66" height="66" rx="11.5" stroke="#3D3D3D" stroke-opacity="0.49"/>
<g clip-path="url(#clip0_186_54)">
<path d="M34 49H33.8C32.9 48.6 28.5 46.4 28.5 44.5V37.5C28.5 37.3 28.6 37.1 28.8 37L33.8 35H34.2L39.2 37C39.4 37.1 39.5 37.3 39.5 37.5V44.5C39.5 46.4 35.1 48.5 34.2 49H34ZM29.5 37.8V44.5C29.5 45.4 32.1 47 34 47.9C36.2 46.8 38.5 45.3 38.5 44.5V37.8L34 36L29.5 37.8Z" fill="#FF0000"/>
<path d="M34 41.9999H32C31.7 41.9999 31.5 41.7999 31.5 41.4999V38.9999C31.5 38.7999 31.6 38.5999 31.8 38.5999L33.8 37.5999C34 37.4999 34.1 37.4999 34.3 37.5999C34.4 37.6999 34.5 37.8999 34.5 37.9999V41.4999C34.5 41.7999 34.3 41.9999 34 41.9999ZM32.5 40.9999H33.5V38.7999L32.5 39.2999V40.9999Z" fill="#FF0000"/>
<path d="M34 45.5C33.9 45.5 33.8 45.5 33.7 45.4C33.6 45.3 33.5 45.1 33.5 45V41.5C33.5 41.2 33.7 41 34 41H36C36.3 41 36.5 41.2 36.5 41.5V43.5C36.5 43.6 36.4 43.8 36.3 43.9L36.1 44.1C35.7 44.5 35.2 45 34.2 45.5H34ZM34.5 42V44.1C34.9 43.8 35.2 43.6 35.4 43.3L35.5 43.2V42H34.5Z" fill="#FF0000"/>
<path d="M45.5 43H42C41.7 43 41.5 42.8 41.5 42.5C41.5 42.2 41.7 42 42 42H45.5C46.6 42 47.5 41.1 47.5 40V29C47.5 27.9 46.6 27 45.5 27H30.9C29.6 27 28.4 26.2 28 24.9L27.9 24.3C27.6 23.6 26.9 23 26 23H22.5C21.4 23 20.5 23.9 20.5 25V40C20.5 41.1 21.4 42 22.5 42H26C26.3 42 26.5 42.2 26.5 42.5C26.5 42.8 26.3 43 26 43H22.5C20.8 43 19.5 41.7 19.5 40V25C19.5 23.3 20.8 22 22.5 22H26C27.3 22 28.4 22.8 28.8 24.1L29 24.7C29.2 25.4 30 26 30.9 26H45.5C47.2 26 48.5 27.3 48.5 29V40C48.5 41.7 47.2 43 45.5 43Z" fill="#FF0000"/>
<path d="M47 27.5C46.7 27.5 46.5 27.3 46.5 27V22C46.5 20.9 45.6 20 44.5 20H23.5C22.4 20 21.5 20.9 21.5 22V22.5C21.5 22.8 21.3 23 21 23C20.7 23 20.5 22.8 20.5 22.5V22C20.5 20.3 21.8 19 23.5 19H44.5C46.2 19 47.5 20.3 47.5 22V27C47.5 27.3 47.3 27.5 47 27.5Z" fill="#FF0000"/>
</g>
<defs>
<clipPath id="clip0_186_54">
<rect width="30" height="30" fill="white" transform="translate(19 19)"/>
</clipPath>
</defs>
</svg>
