<svg width="67" height="67" viewBox="0 0 67 67" fill="none" xmlns="http://www.w3.org/2000/svg">
<rect width="67" height="67" rx="12" fill="black" fill-opacity="0.06"/>
<rect x="0.5" y="0.5" width="66" height="66" rx="11.5" stroke="#3D3D3D" stroke-opacity="0.49"/>
<path d="M22.225 25.25H44.775M39 30.75C39 32.2087 38.4205 33.6076 37.3891 34.6391C36.3576 35.6705 34.9587 36.25 33.5 36.25C32.0413 36.25 30.6424 35.6705 29.6109 34.6391C28.5795 33.6076 28 32.2087 28 30.75M25.25 19.75L21.125 25.25V44.5C21.125 46.0125 22.3625 47.25 23.875 47.25H43.125C43.8543 47.25 44.5538 46.9603 45.0695 46.4445C45.5853 45.9288 45.875 45.2293 45.875 44.5V25.25L41.75 19.75H25.25Z" stroke="#871975" stroke-width="2" stroke-linecap="round" stroke-linejoin="round"/>
</svg>
